<svg xmlns="http://www.w3.org/2000/svg" version="1.1" xmlns:xlink="http://www.w3.org/1999/xlink" width="512" height="512" x="0" y="0" viewBox="0 0 50 50" style="enable-background:new 0 0 512 512" xml:space="preserve" class=""><g><path d="M29.052 21.57h-8.181v-3.74c0-1.053.856-1.91 1.91-1.91h4.361c1.054 0 1.91.857 1.91 1.91zm3.5 2.834v8.34c0 .737-.6 1.336-1.336 1.336h-12.51a1.337 1.337 0 0 1-1.335-1.335v-8.34c0-.737.6-1.336 1.336-1.336h12.51c.736 0 1.335.599 1.335 1.335zM26.538 28a1.577 1.577 0 0 0-3.152 0c0 .596.336 1.11.825 1.377v.794a.75.75 0 0 0 1.5 0v-.794A1.57 1.57 0 0 0 26.538 28zM39.186 7.43v35.138a4.185 4.185 0 0 1-4.18 4.181H14.994a4.185 4.185 0 0 1-4.181-4.18V7.43a4.185 4.185 0 0 1 4.18-4.18h20.011a4.185 4.185 0 0 1 4.181 4.18zM21.484 6.5c0 .414.336.75.75.75h5.532a.75.75 0 0 0 0-1.5h-5.532a.75.75 0 0 0-.75.75zm12.568 17.904a2.839 2.839 0 0 0-2.836-2.835h-.664V17.83c0-1.88-1.53-3.41-3.41-3.41h-4.361c-1.88 0-3.41 1.53-3.41 3.41v3.74h-.664a2.839 2.839 0 0 0-2.836 2.834v8.34a2.839 2.839 0 0 0 2.836 2.836h12.51a2.839 2.839 0 0 0 2.835-2.835z" fill="#000000" opacity="1" data-original="#000000" class=""></path></g></svg>